<?xml version="1.0" encoding="UTF-8" standalone="no" ?>
<!DOCTYPE svg PUBLIC "-//W3C//DTD SVG 1.1//EN" "http://www.w3.org/Graphics/SVG/1.1/DTD/svg11.dtd">
<svg xmlns="http://www.w3.org/2000/svg" xmlns:xlink="http://www.w3.org/1999/xlink" version="1.1" width="137.65" height="148.25" xml:space="preserve">
<desc>Created with Fabric.js 1.6.0-rc.1</desc>
<defs></defs>
<g style="stroke: none; stroke-width: 1; stroke-dasharray: none; stroke-linecap: butt; stroke-linejoin: miter; stroke-miterlimit: 10; fill: none; fill-rule: nonzero; opacity: 1;" transform="translate(10 10) scale(0.25 0.25)" >
  <path d="M 469.595 336.231 v 156.861 c 0 10.441 -8.464 18.907 -18.907 18.907 H 107.495 c -17.969 0 -34.251 -7.291 -46.031 -19.059 c -11.78 -11.78 -19.059 -28.05 -19.059 -46.031 c 0 -31.106 13.226 -108.053 42.405 -114.482 l 22.686 -20.289 l 265.168 -35.506 l 76.085 25.362 L 469.595 336.231 z" style="stroke: none; stroke-width: 1; stroke-dasharray: none; stroke-linecap: butt; stroke-linejoin: miter; stroke-miterlimit: 10; fill: #D3321C; fill-rule: nonzero; opacity: 1;" transform=" matrix(1 0 0 1 0 0) " stroke-linecap="round" />
  <path d="M 443.676 467.249 H 93.407 v -83.896 c 4.54 -1.002 9.244 -1.534 14.088 -1.534 h 336.181 c -6.569 11.438 -10.297 24.017 -11.184 36.749 C 431.325 435.268 435.053 452.235 443.676 467.249 z" style="stroke: none; stroke-width: 1; stroke-dasharray: none; stroke-linecap: butt; stroke-linejoin: miter; stroke-miterlimit: 10; fill: #CCCCCC; fill-rule: nonzero; opacity: 1;" transform=" matrix(1 0 0 1 0 0) " stroke-linecap="round" />
  <path d="M 443.676 381.819 c -6.569 11.438 -10.297 24.017 -11.184 36.749 H 93.407 v -35.215 c 4.54 -1.002 62.643 -101.649 67.487 -101.649 L 443.676 381.819 z" style="stroke: none; stroke-width: 1; stroke-dasharray: none; stroke-linecap: butt; stroke-linejoin: miter; stroke-miterlimit: 10; fill: #B3B3B3; fill-rule: nonzero; opacity: 1;" transform=" matrix(1 0 0 1 0 0) " stroke-linecap="round" />
  <path d="M 469.595 22.223 v 337.371 c 0 12.274 -9.949 22.223 -22.223 22.223 h -18.47 v -0.013 H 107.495 V 0 h 339.877 C 459.646 0 469.595 9.949 469.595 22.223 z" style="stroke: none; stroke-width: 1; stroke-dasharray: none; stroke-linecap: butt; stroke-linejoin: miter; stroke-miterlimit: 10; fill: #E54728; fill-rule: nonzero; opacity: 1;" transform=" matrix(1 0 0 1 0 0) " stroke-linecap="round" />
  <path d="M 440.315 370.406 l -11.413 -0.013 H 118.908 V 11.413 h 328.463 c 5.961 0 10.81 4.85 10.81 10.81 v 337.371 c 0 5.961 -4.85 10.812 -10.81 10.812 H 440.315 z" style="stroke: none; stroke-width: 1; stroke-dasharray: none; stroke-linecap: butt; stroke-linejoin: miter; stroke-miterlimit: 10; fill: #F95428; fill-rule: nonzero; opacity: 1;" transform=" matrix(1 0 0 1 0 0) " stroke-linecap="round" />
  <path d="M 107.495 381.806 h 321.408 v 0.013 H 107.495 c -4.844 0 -9.549 0.533 -14.088 1.534 c -29.179 6.429 -51.002 32.45 -51.002 63.556 V 65.091 C 42.405 29.14 71.545 0 107.495 0 V 381.806 z" style="stroke: none; stroke-width: 1; stroke-dasharray: none; stroke-linecap: butt; stroke-linejoin: miter; stroke-miterlimit: 10; fill: #E54728; fill-rule: nonzero; opacity: 1;" transform=" matrix(1 0 0 1 0 0) " stroke-linecap="round" />
  <path d="M 353.638 278.809 H 210.461 c -3.59 0 -6.827 -2.163 -8.201 -5.479 c -1.373 -3.316 -0.614 -7.134 1.925 -9.673 l 72.467 -72.467 l -72.467 -72.467 c -2.539 -2.539 -3.298 -6.357 -1.925 -9.673 c 1.373 -3.316 4.611 -5.479 8.201 -5.479 h 143.178 c 4.902 0 8.877 3.974 8.877 8.877 v 27.041 c 0 4.902 -3.974 8.877 -8.877 8.877 c -4.902 0 -8.877 -3.974 -8.877 -8.877 v -18.167 H 231.891 l 63.59 63.59 c 3.467 3.466 3.467 9.087 0 12.553 l -63.59 63.59 h 112.871 v -19.49 c 0 -4.902 3.974 -8.877 8.877 -8.877 c 4.902 0 8.877 3.974 8.877 8.877 v 28.367 C 362.515 274.835 358.541 278.809 353.638 278.809 z" style="stroke: none; stroke-width: 1; stroke-dasharray: none; stroke-linecap: butt; stroke-linejoin: miter; stroke-miterlimit: 10; fill: #FFFFFF; fill-rule: nonzero; opacity: 1;" transform=" matrix(1 0 0 1 0 0) " stroke-linecap="round" />
</g>
</svg>